<svg width="72" height="76" viewBox="0 0 72 76" fill="none" xmlns="http://www.w3.org/2000/svg">
    <style>
        .bar-1,
        .bar-2,
        .bar-3 {
            animation: barsopacity;
            animation-duration: 2s;
            animation-iteration-count: infinite;
            opacity: 0;
        }

        .bar-2 {
            animation-delay: 0.5s;
        }

        .bar-3 {
            animation-delay: 1s;
        }
        @keyframes barsopacity {
            0% {
                opacity: 0;
            }

            50% {
                opacity: 1;
            }

            100% {
                opacity: 0;
            }
        }
    </style>
    <path d="M49.9067 41.4524H44.1433C43.4341 41.3902 42.7605 41.1141 42.2117 40.6607L37.24 35.6891C35.9789 34.5182 34.3367 33.8433 32.6167 33.7891H24.9533C23.2253 33.8498 21.5753 34.5233 20.2983 35.6891L15.3583 40.6607C14.8065 41.1091 14.1345 41.3845 13.4267 41.4524H7.66334C5.62799 41.4608 3.67886 42.2752 2.24261 43.7174C0.806355 45.1596 -1.72344e-05 47.112 2.76262e-10 49.1474L2.76262e-10 68.3374C0.00833635 70.3673 0.818398 72.3116 2.25375 73.747C3.6891 75.1823 5.63346 75.9924 7.66334 76.0007H49.9067C51.9366 75.9924 53.8809 75.1823 55.3163 73.747C56.7516 72.3116 57.5617 70.3673 57.57 68.3374V49.1474C57.57 47.112 56.7637 45.1596 55.3274 43.7174C53.8912 42.2752 51.942 41.4608 49.9067 41.4524V41.4524ZM37.43 58.7424C37.43 60.4522 36.923 62.1236 35.9731 63.5453C35.0231 64.967 33.673 66.075 32.0933 66.7293C30.5136 67.3837 28.7754 67.5549 27.0985 67.2213C25.4215 66.8877 23.8811 66.0644 22.6721 64.8553C21.463 63.6463 20.6397 62.1059 20.3061 60.429C19.9725 58.752 20.1437 57.0138 20.7981 55.4341C21.4524 53.8544 22.5604 52.5043 23.9821 51.5543C25.4038 50.6044 27.0752 50.0974 28.785 50.0974C31.0778 50.0974 33.2767 51.0082 34.898 52.6295C36.5192 54.2507 37.43 56.4496 37.43 58.7424V58.7424Z" fill="#B4B4B4" />
    <path d="M42.3385 20.6465C41.4987 20.6465 40.6932 20.9801 40.0994 21.574C39.5055 22.1678 39.1719 22.9733 39.1719 23.8132C39.1719 24.653 39.5055 25.4585 40.0994 26.0523C40.6932 26.6462 41.4987 26.9798 42.3385 26.9798C42.9106 27.0032 43.4528 27.2409 43.8576 27.6457C44.2625 28.0505 44.5002 28.5928 44.5235 29.1648C44.5235 30.0047 44.8572 30.8101 45.451 31.404C46.0449 31.9979 46.8504 32.3315 47.6902 32.3315C48.5301 32.3315 49.3355 31.9979 49.9294 31.404C50.5232 30.8101 50.8569 30.0047 50.8569 29.1648C50.8162 26.9183 49.9057 24.7752 48.317 23.1864C46.7282 21.5976 44.585 20.6871 42.3385 20.6465V20.6465Z" fill="#B4B4B4" class="bar-1" />
    <path d="M42.1481 10.3232C41.3083 10.3232 40.5028 10.6569 39.9089 11.2507C39.3151 11.8446 38.9814 12.6501 38.9814 13.4899C38.9814 14.3298 39.3151 15.1352 39.9089 15.7291C40.5028 16.3229 41.3083 16.6566 42.1481 16.6566C45.4724 16.7672 48.6303 18.1372 50.9822 20.4892C53.3341 22.8411 54.7041 25.999 54.8148 29.3232C54.8148 30.1631 55.1484 30.9686 55.7423 31.5624C56.3361 32.1563 57.1416 32.4899 57.9814 32.4899C58.8213 32.4899 59.6268 32.1563 60.2206 31.5624C60.8145 30.9686 61.1481 30.1631 61.1481 29.3232C61.0199 24.3245 58.9769 19.566 55.4412 16.0302C51.9054 12.4944 47.1468 10.4515 42.1481 10.3232V10.3232Z" fill="#B4B4B4" class="bar-2" />
    <path d="M41.9264 0C41.0866 0 40.2811 0.33363 39.6873 0.927495C39.0934 1.52136 38.7598 2.32681 38.7598 3.16667C38.7598 4.00652 39.0934 4.81197 39.6873 5.40584C40.2811 5.9997 41.0866 6.33333 41.9264 6.33333C48.0355 6.50867 53.8462 9.0138 58.1678 13.3353C62.4893 17.6569 64.9944 23.4676 65.1698 29.5767C65.1698 30.4165 65.5034 31.222 66.0973 31.8158C66.6911 32.4097 67.4966 32.7433 68.3364 32.7433C69.1763 32.7433 69.9817 32.4097 70.5756 31.8158C71.1695 31.222 71.5031 30.4165 71.5031 29.5767C71.3104 21.7931 68.1325 14.3816 62.627 8.87612C57.1215 3.37063 49.71 0.192671 41.9264 0V0Z" fill="#B4B4B4" class="bar-3" />
</svg>