<svg width="16" height="9" viewBox="0 0 16 9" fill="none" xmlns="http://www.w3.org/2000/svg">
<path d="M7.69174 7.18135L14.3279 0.196965C14.4444 0.0707852 14.6017 -3.42179e-08 14.7657 -2.70507e-08C14.9296 -1.98835e-08 15.087 0.0707852 15.2035 0.196965C15.2608 0.258908 15.3064 0.332687 15.3374 0.414022C15.3685 0.495357 15.3845 0.582631 15.3845 0.670781C15.3845 0.758931 15.3685 0.846204 15.3374 0.927539C15.3064 1.00887 15.2608 1.08265 15.2035 1.1446L8.13036 8.80303C8.01387 8.92921 7.85653 9 7.69256 9C7.5286 9 7.37126 8.92921 7.25476 8.80303L0.181652 1.1446C0.124101 1.08278 0.0783882 1.00904 0.047183 0.927686C0.0159778 0.846334 -9.44469e-05 0.759 -9.44431e-05 0.67078C-9.44392e-05 0.582561 0.0159778 0.495226 0.047183 0.413874C0.0783882 0.332522 0.124101 0.258784 0.181652 0.196965C0.298149 0.0707846 0.455486 -6.52569e-07 0.619452 -6.45402e-07C0.783419 -6.38235e-07 0.940756 0.0707846 1.05725 0.196965L7.69092 7.18135L7.69174 7.18135Z" fill="#1F1C1E"/>
</svg>
